<?xml version="1.0" encoding="utf-8"?>
<!-- Generator: Adobe Illustrator 21.1.0, SVG Export Plug-In . SVG Version: 6.00 Build 0)  -->
<svg version="1.1" xmlns="http://www.w3.org/2000/svg" xmlns:xlink="http://www.w3.org/1999/xlink" x="0px" y="0px"
	 viewBox="0 0 5118.4 2311.3" style="enable-background:new 0 0 5118.4 2311.3;" xml:space="preserve">
<style type="text/css">
	.st0{fill:#7C00FF;}
	.st1{fill:#FFFFFF;}
	.st2{fill:#39E28D;}
	.st3{fill:#FFE600;}
</style>
<g id="BCKG">
</g>
<g id="Layer_3">
	<g id="XMLID_14_">
		<g id="XMLID_22_">
			<path id="XMLID_32_" class="st0" d="M4088.9,1136.5c-67.3,60.2-125.7,130.2-172.9,207.7l91,122.8c25.4,34.3,45.8,71.9,60.6,112
				l1.3,3.5c52.7,142.2,169.5,250.9,314.9,293.1c130.5,37.9,267.7,77.9,267.7,77.9l-58.4-183.8l-2.3-153.1"/>
		</g>
	</g>
	<path id="XMLID_42_" class="st1" d="M1730.8,1096.3c45.1-78.9,77.7-160.3,57.6-255.6c-14.7-69.6-100.7-322.2-363.1-356.4
		c-73.1-9.5-216-12.4-328.9,99.7c-17.8,17.7-34.6,36.3-48.5,57.1c-28.7,42.9-48,92-57.4,142.7c-17.4,93.2-3.8,190.1,24.2,280.7
		c18.6,60.1,55.6,111.3,56.8,174.2c0.5,26.5-21.4,56.4,0.2,63.2c10.4,3.2,36.6-3.4,47.3-5.7c35.5-7.6,69.9,6.4,95.5,32.1
		c63.8,64.2,183.2,102.9,276.8,67c6.3-2.4,13.4,0.2,16.6,6.1c47.7,85.9,89.5,194.4,59,283.5v0l0,0
		c171.7-103.6,408.6-226.1,402.2-438.1l-15.6-23.9L1730.8,1096.3z"/>
	<path id="XMLID_46_" class="st0" d="M2618.8,2304.4h-1231l184.4-638l0,0c312.8-134.3,381.3-443.6,381.3-443.6
		s935.5,435.4,929.7,441.8C2877.5,1670.9,2618.8,2304.4,2618.8,2304.4z"/>
	<path id="XMLID_47_" class="st2" d="M2194.7,1394.6c-82.9-37.1-180.3,0-217.4,82.9l-195.9,437.3c-7.6,16.9-20.9,30.5-37.6,38.4
		l-63.2,29.8c-153.3,72.3-317.3,119.1-485.6,138.5l-10.7,1.2v181.7h730.3c32.4,0,61.7-19,74.9-48.6l288.1-643.9
		C2314.7,1529,2277.6,1431.7,2194.7,1394.6z"/>
	<path id="XMLID_48_" class="st3" d="M314.5,2193.5L85.9,1729c-6.8-13.7-23.4-19.4-37.1-12.6l-18.4,9.1
		c-26.9,13.3-38,45.9-24.8,72.8l243.7,495c3.3,6.8,10.3,11.1,17.9,11.1h779.5v-99.8H332.4C324.8,2204.6,317.9,2200.3,314.5,2193.5z"
		/>
	<path id="XMLID_49_" class="st1" d="M1184.3,2122.7l-158.4,19.9c-10,0-19.6-3.9-26.8-10.8c-14.4-13.9-38.6-60.9-135.4-60.9h-82.3
		c-16.2,0-32.1,4.1-46.4,11.8c-36.7,20-109.9,59.6-136.3,73.4c-18.1,9.4-29.4,28.2-29.4,48.6l0,0h176.9h82.4
		c143.1,2.5,184.9,99.7,200.8,99.7h155V2122.7z"/>
	<circle cx="1205.1" cy="1084.1" r="34.1"/>
	<g>
		<g>
			<path id="XMLID_26_" class="st3" d="M1310,825.1L1457.3,943c22.9,18.3,57.6,8.3,66.2-19.8c0.2-0.6,0.3-1.1,0.5-1.7
				c3.3-12.1,8.2-24.1,15.9-34c7.2-9.2,17.9-15.2,29.2-18.2c37.2-9.9,80,15.8,88.8,53.2c7,29.8-8.6,62.5-34.3,78.5
				c-10.4,6.5-11.7,21.2-2.5,29.3c26.2,23.5,38.9,25.7,109.7,65.7c198.6-302.5-22.4-601.5-267.4-624.8
				c-115.6-11-254.2,0.5-367.1,112.6c-17.8,17.6-34.6,36.3-48.5,57.1c-28.7,42.9-48,92-57.5,142.7c-15.3,82-6.6,166.8,14.8,247.7
				c152.5-39.9,196.2-161.6,252.3-206.6C1272.8,812.7,1294.7,812.8,1310,825.1z"/>
		</g>
	</g>
	<circle class="st3" cx="1358.5" cy="259.6" r="168"/>
	<path id="XMLID_68_" class="st1" d="M4088.9,1136.5l-650.7-622.4c-13.1-12.6-29.3-18.1-45-17.8c0,0-0.1,0-0.1,0
		c-1.3,0-2.6,0.1-3.9,0.2c-2.4,0.2-4.7,0.5-7.1,1c-1.8,0.3-3.5,0.8-5.2,1.2c-1.1,0.3-2.2,0.6-3.3,1c-6.5,2.2-12.7,5.4-18.2,9.5
		c-0.7,0.5-1.3,1-2,1.5c-0.7,0.6-1.4,1.2-2.1,1.8c-0.8,0.7-1.6,1.5-2.4,2.2c0,0,0,0,0,0c-0.7,0.7-1.5,1.5-2.2,2.3
		c-0.8,0.9-1.7,1.9-2.5,2.8c-0.7,0.9-1.4,1.8-2,2.7c-1.2,1.6-2.2,3.2-3.2,4.9c-0.4,0.7-0.8,1.4-1.2,2.2c-0.5,1-1,1.9-1.5,2.9
		c-0.3,0.7-0.6,1.4-0.9,2.1c-2.4,5.6-4,11.7-4.8,18.3v0c-1.8,15.5,2.1,31,11,43.8c4.3,6.1,9.4,13.5,15,21.8
		c7.1,10.4,13.9,20.9,20.5,31.5c4.4,7.1,8.7,14.3,12.9,21.5c4.2,7.2,8.2,14.5,12.2,21.8c7.9,14.7,15.4,29.5,22.4,44.6
		c1.8,3.8,3.5,7.6,5.2,11.3c3.4,7.6,6.7,15.2,9.8,22.9c4.8,11.5,9.3,23.2,13.5,34.9c2.8,7.8,5.5,15.7,8.1,23.6
		c5.2,15.8,9.9,31.8,14.1,47.8c9.6,36.2,16.7,73.1,21.4,110.5c0.5,3.9,1,7.6,1.4,11.3s0.9,7.3,1.4,10.8c0.7,5.3,1.3,10.3,1.9,15
		c0.2,1.6,0.4,3.1,0.6,4.7c0.4,3.4,1,6.8,1.7,10.2c0.7,3.4,1.5,6.7,2.4,10c0.5,1.6,1,3.3,1.5,4.9c3,9.4,7.1,18.3,12,26.8
		c4.5,7.7,9.8,15.1,15.8,21.9l0,0c8.3,9.4,17.8,17.6,28.3,24.3c3,1.9,6,3.7,9.1,5.4c4.7,2.5,9.5,4.8,14.4,6.8c1.6,0.7,3.3,1.3,5,1.9
		c3.4,1.2,6.8,2.3,10.2,3.2c1.7,0.5,3.5,0.9,5.2,1.3l146.7,33.6c10,2.3,19.6,5.7,28.7,10c0.9,0.4,1.8,0.9,2.7,1.3
		c1.8,0.9,3.6,1.9,5.3,2.9c1.8,1,3.5,2,5.2,3.1c6.9,4.3,13.3,9.1,19.3,14.6c1.5,1.4,3,2.7,4.4,4.2c0.8,0.7,1.5,1.5,2.2,2.3
		c1.7,1.8,3.4,3.6,5,5.4c2.4,2.7,4.6,5.5,6.8,8.4l6.8,9.1l75.3,101.7C3963.2,1266.8,4021.6,1196.8,4088.9,1136.5z"/>
	<g id="XMLID_23_">
		<path id="XMLID_25_" class="st2" d="M5104.8,2011.7L4697.3,902.8c-14.8-0.7-29.7-1.1-44.7-1.1c-83.5,0-164.4,11.1-241.3,31.9
			c34.6,182,76.4,404.4,74.9,408.8c-1.1,3.4-6.8,108.6-12.7,223.3c-9.5,184.8,63.1,291,63.1,291c-207.9-60.6-430.9-44.6-788-233
			c-40.5-21.4-194.3-105.3-236.9-122.2c-50.9-20.2-105.6-29.8-160.3-33.3c-179.2-11.4-365.6,46.7-493.9,172.4
			c-55.8,54.6-99.6,120.3-139.6,187.3c-53.5,89.7-61.8,96.7-103.1,192.5c-68.7,159.1-153.2,254.4-371.6,284.1l2654.1,4.9
			c73.4,0,142-36.4,183.1-97.1h0C5120.3,2153.2,5129.4,2078.6,5104.8,2011.7z"/>
	</g>
	<path id="XMLID_27_" class="st1" d="M4697.3,902.8L4379.7,38.7c-15.2-41.3-68.5-52-98.5-19.9l0,0c-9.3,9.9-14.8,22.8-15.7,36.3
		l-16.4,247.5c-1.4,21.9-6.9,43.3-16,63.3l-27.5,60c-16.8,36.8-20.8,78.2-11.3,117.6v0c12.8,53,48.8,97.4,98.1,120.8l74.2,35.3
		c0,0,20.6,107.2,44.7,234.1c76.9-20.8,157.8-31.9,241.3-31.9C4667.5,901.7,4682.4,902.1,4697.3,902.8z"/>
</g>
<g id="TEXT">
</g>
<g id="GUIDES">
</g>
</svg>
