
<svg width="206px" height="196px" viewBox="0 0 206 196" version="1.1" xmlns="http://www.w3.org/2000/svg" xmlns:xlink="http://www.w3.org/1999/xlink">
    <!-- Generator: Sketch 47.1 (45422) - http://www.bohemiancoding.com/sketch -->
    <defs>
        <polygon id="path-1" points="196.799 0.48 196.799 97.458 0.162 97.458 0.162 0.48 196.799 0.48"></polygon>
    </defs>
    <g id="Page-1" stroke="none" stroke-width="1" fill="none" fill-rule="evenodd">
        <g id="green-logo-centered">
            <path d="M74.889,131.729 L74.889,125.703 C73.779,126.639 72.871,127.832 72.78,129.426 C72.753,129.886 73.135,130.365 74.489,131.421 C74.487,131.42 74.485,131.42 74.482,131.419 C74.62,131.518 74.755,131.623 74.889,131.729" id="Fill-10" fill="#42AF71"></path>
            <path d="M102.157,75.732 C99.723,74.988 96.998,74.576 93.953,74.576 C92.893,74.576 90.46,74.739 87.592,75.514 C87.018,75.669 86.428,75.849 85.827,76.057 C85.53,76.159 85.23,76.269 84.929,76.386 C84.599,76.514 84.268,76.647 83.936,76.793 C83.517,76.978 83.096,77.177 82.677,77.393 C79.741,78.901 76.87,81.196 74.889,84.676 L74.763,84.676 L74.763,75.838 L55.194,75.838 L55.194,143.258 L59.804,143.258 C61.335,142.749 62.695,142.045 62.69,140.263 C62.905,136.996 59.702,133.251 62.877,130.813 C63.439,130.442 64.092,130.161 64.768,129.945 C65.363,129.755 65.967,129.619 66.576,129.526 C66.564,129.524 66.558,129.523 66.558,129.523 C66.558,129.523 66.612,129.518 66.699,129.508 C66.889,129.482 67.08,129.458 67.272,129.441 C67.933,129.354 68.882,129.195 69.373,128.961 C71.529,127.545 73.424,125.858 74.889,123.875 L74.889,105.887 C74.889,100.245 77.389,95.103 82.797,93.373 C84.044,92.974 85.447,92.756 87.009,92.756 C87.009,92.756 87.012,92.757 87.013,92.757 C87.317,92.757 87.613,92.767 87.904,92.783 C87.988,92.787 88.07,92.794 88.153,92.799 C88.375,92.815 88.594,92.835 88.808,92.859 C88.88,92.867 88.953,92.875 89.024,92.884 C89.591,92.957 90.131,93.062 90.646,93.196 C90.692,93.209 90.739,93.222 90.785,93.234 C91.014,93.297 91.238,93.366 91.457,93.441 C91.485,93.45 91.513,93.459 91.541,93.469 C92.048,93.647 92.527,93.856 92.979,94.095 C92.994,94.104 93.009,94.112 93.024,94.12 C93.246,94.239 93.463,94.365 93.672,94.499 C93.673,94.5 93.674,94.5 93.675,94.501 C95.854,95.69 97.679,95.431 98.279,93.585 C98.934,91.566 99.762,89.927 100.792,89.07 C101.822,88.213 102.697,88.168 103.212,89.07 C103.771,90.047 102.414,90.799 101.071,91.444 C99.778,92.065 98.751,93.002 98.751,95.819 C98.751,98.635 98.751,105.887 98.751,105.887 L98.751,127.346 C100.15,126.199 101.956,125.929 103.572,127.418 C109.035,130.892 112.264,137.499 118.893,138.798 L118.894,138.798 C118.846,138.524 118.799,138.247 118.757,137.962 C118.462,135.963 118.321,133.717 118.321,131.214 L118.321,101.342 C118.321,98.422 117.998,95.55 117.336,92.83 C110.971,89.201 105.668,83.199 102.157,75.732" id="Fill-11" fill="#42AF71"></path>
            <path d="M19.093,135.977 C18.023,134.404 17.19,132.344 16.913,130.199 C12.858,132.365 8.278,133.118 3.63,132.608 C6.687,144.388 12.246,155.17 19.699,164.357 C25.562,156.835 27.089,147.875 19.093,135.977" id="Fill-12" fill="#42AF71"></path>
            <path d="M161.336,150.986 C161.838,150.047 162.32,149.066 162.781,148.038 C162.956,147.646 163.129,147.249 163.298,146.843 C163.637,146.034 163.963,145.197 164.277,144.332 C164.59,143.467 164.89,142.575 165.176,141.654 C165.462,140.733 165.734,139.783 165.992,138.804 C166.249,137.826 166.493,136.817 166.721,135.779 C168.01,129.903 168.806,123.059 168.992,115.12 C167.691,116.341 166.36,117.521 165.031,118.68 C163.302,119.95 161.421,121.064 159.39,121.969 C156.105,123.512 152.58,124.295 148.997,124.458 C148.888,125.754 148.759,126.995 148.612,128.183 C148.539,128.777 148.46,129.358 148.378,129.925 C148.212,131.06 148.028,132.143 147.825,133.173 C147.646,134.079 147.451,134.939 147.243,135.767 C147.181,136.011 147.119,136.251 147.055,136.489 C146.668,137.93 146.234,139.248 145.754,140.449 C145.57,140.908 145.38,141.349 145.183,141.774 C144.969,142.236 144.749,142.684 144.518,143.106 C143.978,144.097 143.394,144.982 142.764,145.763 C142.686,148.458 142.706,150.963 141.398,153.371 C140.281,155.426 139.62,157.257 138.27,158.822 C135.058,162.541 131.565,165.859 126.822,167.799 C126.148,168.075 125.484,168.388 124.795,168.656 C126.775,168.999 128.838,169.182 130.985,169.182 C141.938,169.182 153.817,165.052 161.336,150.986" id="Fill-13" fill="#42AF71"></path>
            <path d="M151.237,88.484 C150.071,89.799 148.616,90.952 147.06,91.955 C146.901,92.057 146.74,92.154 146.579,92.253 C147.856,96.368 148.72,100.625 149.144,104.975 C151.971,104.92 154.345,102.597 155.204,99.256 C157.14,91.722 156.173,81.822 161.685,77.01 C160.943,75.36 160.145,73.734 159.294,72.134 C158.443,70.533 157.539,68.959 156.582,67.412 C156.317,66.985 156.049,66.56 155.777,66.137 C153.609,62.772 151.189,59.545 148.524,56.481 C146.006,58.506 144.31,60.952 145.29,64.545 C146.966,72.923 157.578,80.185 151.237,88.484" id="Fill-14" fill="#42AF71"></path>
            <g id="Group-18" transform="translate(9.000000, 27.000000)">
                <mask id="mask-2" fill="white">
                    <use xlink:href="#path-1"></use>
                </mask>
                <g id="Clip-16"></g>
                <path d="M3.254,50.121 C6.635,52.373 9.063,56.923 7.212,60.981 C6.892,62.035 6.444,63.155 5.905,64.322 C4.142,68.257 1.346,72.612 4.98,75.874 C6.725,77.671 9.244,78.82 11.655,80 C12.233,71.67 14.397,63.77 17.851,56.603 C18.082,56.125 18.318,55.65 18.559,55.179 C18.848,54.617 19.147,54.061 19.451,53.509 C19.821,52.836 20.204,52.172 20.597,51.515 C31.454,33.36 50.979,20.965 73.414,20.085 C73.423,20.083 73.425,20.08 73.433,20.079 C82.225,18.57 87.336,9.935 92.19,4.595 C92.656,3.951 93.283,3.226 94.13,2.436 C88.234,1.146 82.156,0.48 75.974,0.48 C54.255,0.48 34.434,8.762 19.505,22.335 C18.509,23.24 17.535,24.168 16.585,25.119 C16.579,25.125 16.574,25.13 16.568,25.136 C12.916,28.79 9.603,32.78 6.669,37.05 C6.473,37.335 6.279,37.62 6.087,37.907 C5.297,39.088 4.537,40.29 3.807,41.511 C3.295,42.368 2.796,43.234 2.314,44.11 C1.937,44.794 1.569,45.485 1.21,46.181 C0.851,46.877 0.502,47.579 0.162,48.286 C1.214,48.803 2.246,49.428 3.254,50.121" id="Fill-15" fill="#42AF71" mask="url(#mask-2)"></path>
                <path d="M195.558,30.526 C192.723,26.858 188.1,27.912 184.605,30.026 C177.442,34.353 178.058,45.338 171.096,49.771 C170.721,50.008 170.347,50.246 169.968,50.478 C168.829,51.168 167.659,51.832 166.483,52.412 C161.144,55.047 155.741,55.97 152.863,50.388 L152.858,50.393 C152.805,50.267 152.742,50.14 152.684,50.008 C149.932,52.412 148.794,56.091 148.103,60.113 C147.413,64.129 147.17,68.488 146.206,72.257 C145.347,75.599 142.969,77.919 140.144,77.976 C140.355,80.122 140.495,82.301 140.484,84.488 C140.484,84.488 140.484,84.515 140.487,84.512 C140.487,87.527 140.423,90.337 140.297,92.951 C140.218,94.522 140.118,96.024 139.996,97.458 C143.581,97.295 147.107,96.515 150.391,94.97 C152.42,94.064 154.302,92.951 156.031,91.681 C157.359,90.522 158.693,89.341 159.99,88.118 C160.021,86.942 160.037,85.741 160.037,84.512 C160.032,84.512 160.026,84.512 160.021,84.512 C160.011,84.512 160.005,84.512 160,84.512 C160.005,83.005 159.963,81.503 159.889,80.006 C159.905,80.032 159.921,80.058 159.937,80.085 C159.784,70.254 163.326,59.401 167.98,53.999 C168.966,52.855 169.999,51.948 171.064,51.353 C177.647,47.673 183.893,48.522 191.389,43.188 C196.391,39.629 198.268,34.037 195.558,30.526" id="Fill-17" fill="#FFE424" mask="url(#mask-2)"></path>
            </g>
            <path d="M138.059,149.454 C136.283,150.244 134.296,150.613 132.103,150.613 C126.389,150.613 122.641,148.536 120.512,144.129 C120.369,143.835 120.238,143.534 120.111,143.217 C119.806,142.463 119.542,141.647 119.315,140.772 C119.225,140.424 119.141,140.06 119.068,139.691 C119.004,139.402 118.946,139.101 118.893,138.8 C115.578,138.152 113.117,136.17 110.797,133.925 C108.478,131.674 106.306,129.154 103.571,127.415 C101.958,125.929 100.15,126.197 98.753,127.347 L98.753,131.215 C98.753,136.091 99.29,140.556 100.313,144.578 C100.366,144.789 100.424,145 100.482,145.211 C101.067,147.381 101.789,149.421 102.654,151.319 C103.012,152.115 103.397,152.879 103.803,153.628 C103.903,153.807 104.008,153.981 104.108,154.161 C104.63,155.072 105.183,155.953 105.774,156.791 C106.333,157.576 106.912,158.33 107.529,159.042 C107.593,159.121 107.661,159.194 107.729,159.273 C107.988,159.569 108.251,159.858 108.525,160.143 C109.337,160.997 110.191,161.793 111.093,162.531 C111.514,162.874 111.946,163.211 112.384,163.527 C112.827,163.848 113.275,164.154 113.733,164.45 C116.991,166.537 120.707,167.95 124.797,168.656 C125.482,168.387 126.147,168.074 126.821,167.796 C131.562,165.846 135.056,162.543 138.27,158.82 C139.618,157.257 140.542,155.618 141.658,153.565 C142.964,151.16 142.687,148.457 142.766,145.763 C141.406,147.451 139.841,148.663 138.059,149.454" id="Fill-19" fill="#FFE424"></path>
            <path d="M81.127,116.847 C79.387,116.172 77.827,117.727 77.31,119.155 C76.767,120.89 75.935,122.455 74.891,123.873 C74.522,124.369 74.132,124.848 73.716,125.307 C71.465,127.479 70.453,128.253 69.372,128.96 C68.882,129.197 67.933,129.355 67.274,129.439 C67.079,129.461 66.889,129.482 66.7,129.508 C66.647,129.513 66.605,129.518 66.578,129.524 C65.967,129.618 65.361,129.755 64.771,129.945 C64.091,130.161 63.437,130.441 62.878,130.815 C59.705,133.25 62.905,136.998 62.689,140.26 C62.694,142.043 61.334,142.749 59.805,143.26 L74.891,143.26 L74.891,131.727 C74.754,131.622 74.622,131.516 74.48,131.421 C74.485,131.421 74.485,131.421 74.491,131.421 C73.136,130.367 72.751,129.887 72.777,129.423 C72.867,127.932 73.668,126.793 74.685,125.881 C74.754,125.818 74.823,125.76 74.891,125.702 C75.249,125.401 75.629,125.122 76.009,124.869 C78.475,123.309 81.854,122.793 82.56,119.73 C82.676,119.224 82.66,118.708 82.444,118.217 C82.228,117.722 81.812,117.253 81.127,116.847" id="Fill-20" fill="#FFE424"></path>
            <path d="M20.658,107.001 C18.243,105.82 15.724,104.67 13.979,102.873 C10.347,99.61 13.141,95.256 14.907,91.324 C15.444,90.154 15.892,89.037 16.214,87.982 C18.064,83.924 15.634,79.375 12.255,77.119 C11.243,76.428 10.216,75.801 9.161,75.285 C8.624,76.407 8.107,77.546 7.622,78.7 C7.132,79.849 6.668,81.014 6.225,82.189 C6.099,82.532 5.972,82.875 5.851,83.217 C5.06,85.426 4.354,87.682 3.748,89.975 C3.442,91.119 3.163,92.273 2.905,93.438 C2.393,95.768 1.977,98.134 1.66,100.527 C1.502,101.724 1.371,102.931 1.266,104.144 C1.054,106.573 0.944,109.03 0.944,111.507 C0.944,114.237 1.076,116.941 1.334,119.609 C1.592,122.271 1.972,124.901 2.473,127.489 C2.805,129.218 3.195,130.92 3.632,132.607 C8.276,133.118 12.856,132.365 16.915,130.198 C16.493,126.967 17.347,123.536 20.573,121.295 C20.763,121.158 20.969,121.043 21.19,120.953 C20.737,117.869 20.494,114.717 20.494,111.507 C20.494,109.994 20.552,108.492 20.658,107.001" id="Fill-21" fill="#FFE424"></path>
            <g id="Group-25" transform="translate(82.000000, 0.000000)" fill="#7D5E98">
                <path d="M20.158,75.732 C23.669,83.202 28.971,89.2 35.339,92.832 C35.218,92.336 35.086,91.846 34.938,91.361 C32.787,84.098 28.033,78.142 20.158,75.732" id="Fill-22"></path>
                <path d="M52.491,19.122 C57.677,15.469 64.498,14.293 70.133,13.107 C75.441,11.99 81.376,8.221 79.768,3.403 C78.651,0.057 71.387,-0.997 64.409,3.05 C58.141,6.688 53.645,16.655 49.976,18.505 C45.533,20.751 37.943,20.06 31.823,22.833 C26.468,25.263 23.168,27.534 21.128,29.437 C20.285,30.228 19.658,30.95 19.188,31.593 C14.333,36.933 9.226,45.572 0.434,47.079 C0.423,47.079 0.423,47.085 0.413,47.085 C1.262,47.053 2.116,47.032 2.975,47.032 C20.258,47.032 36.498,53.768 48.701,66.008 C56.159,73.482 61.541,82.464 64.577,92.252 C64.741,92.152 64.899,92.057 65.062,91.957 C66.617,90.95 68.072,89.801 69.237,88.483 C75.577,80.187 64.967,72.923 63.291,64.547 C62.31,60.953 64.008,58.507 66.522,56.483 C65.252,55.018 63.929,53.589 62.542,52.203 C55.943,45.583 48.437,40.206 40.304,36.173 L40.304,36.168 C37.521,34.94 37.263,33.137 38.253,31.155 C40.42,26.855 48.932,21.62 52.491,19.122" id="Fill-24"></path>
            </g>
            <path d="M65.329,172.925 C63.69,172.398 62.077,171.808 60.496,171.154 C59.089,170.575 57.702,169.947 56.348,169.272 C55.894,169.045 55.441,168.814 54.993,168.577 C54.018,168.065 53.058,167.522 52.11,166.963 C51.329,166.5 50.56,166.02 49.801,165.525 C48.842,164.892 47.898,164.228 46.975,163.553 C46.106,162.916 45.252,162.262 44.419,161.587 C44.119,161.339 43.818,161.097 43.523,160.844 C40.74,158.509 36.681,154.087 36.186,153.539 C36.186,153.539 36.181,153.533 36.17,153.523 C36.16,153.512 36.149,153.502 36.133,153.48 C35.79,153.101 33.983,150.661 37.957,145.642 C38.047,145.526 38.147,145.416 38.247,145.299 C38.974,144.499 39.997,143.703 41.109,142.823 C42.696,141.563 44.467,140.134 45.837,138.284 C48.52,134.652 49.321,128.817 47.202,127.268 C43.007,124.2 40.097,128.211 39.227,131.179 C38.336,134.199 39.338,137.272 39.175,140.251 C39.101,141.631 38.774,142.991 37.894,144.314 C37.683,144.63 37.461,144.91 37.235,145.158 C34.673,147.935 31.01,146.728 29.07,143.613 C28.69,142.949 28.322,142.28 27.963,141.605 C27.958,141.594 27.952,141.588 27.947,141.579 C25.407,136.782 23.456,131.632 22.191,126.219 C21.785,124.49 21.453,122.734 21.19,120.953 C20.969,121.043 20.763,121.158 20.573,121.295 C17.347,123.536 16.493,126.967 16.915,130.198 C17.189,132.343 18.022,134.404 19.092,135.975 C27.088,147.872 25.565,156.833 19.698,164.36 C20.278,165.071 20.863,165.778 21.459,166.468 C22.344,167.486 23.245,168.482 24.173,169.452 C25.101,170.426 26.055,171.376 27.03,172.308 C28,173.236 28.996,174.137 30.013,175.018 C30.519,175.461 31.036,175.893 31.553,176.325 C32.075,176.752 32.596,177.173 33.129,177.59 C34.188,178.422 35.264,179.229 36.365,180.015 C36.913,180.405 37.467,180.79 38.025,181.164 C40.261,182.676 42.575,184.084 44.951,185.38 C45.847,185.866 46.754,186.33 47.666,186.783 C48.257,187.078 48.847,187.363 49.443,187.642 C50.386,188.085 51.335,188.511 52.299,188.922 C53.164,189.292 54.044,189.639 54.924,189.977 C55.974,190.378 57.028,190.767 58.098,191.127 C58.983,190.425 59.853,189.687 60.691,188.902 C62.694,187.02 64.539,184.912 66.183,182.582 C67.828,180.252 69.198,177.811 70.3,175.297 C70.432,174.997 70.548,174.691 70.674,174.385 C69.694,174.164 68.724,173.917 67.759,173.647 C66.942,173.42 66.136,173.178 65.329,172.925" id="Fill-26" fill="#7D5E98"></path>
            <path d="M113.734,164.449 C114.373,164.209 115.258,164.133 115.471,163.167 C115.586,162.641 115.292,161.678 114.359,161.254 C113.067,160.668 111.836,161.481 111.09,162.533 C110.855,162.864 110.667,163.219 110.542,163.562 C109.876,165.694 108.137,168.302 105.723,170.487 C103.493,172.507 100.685,174.158 97.604,174.736 L97.603,174.736 C93.439,175.564 89.215,175.986 84.974,175.986 C80.06,175.986 75.275,175.431 70.674,174.385 C70.55,174.689 70.434,174.994 70.302,175.295 C69.2,177.81 67.828,180.253 66.182,182.583 C64.536,184.913 62.693,187.021 60.691,188.901 C59.855,189.687 58.985,190.422 58.096,191.128 C60.555,191.961 63.067,192.678 65.622,193.283 C66.561,193.505 67.505,193.712 68.455,193.902 C71.127,194.436 73.843,194.845 76.599,195.12 C79.353,195.395 82.147,195.536 84.974,195.536 C93.982,195.536 102.921,194.092 111.545,191.246 L111.545,191.245 L109.119,183.898 C107.029,175.461 106.619,172.301 106.645,171.841 C106.676,171.31 106.754,170.945 106.879,170.679 C107.251,169.892 108.04,169.991 109.244,169.275 C112.671,167.238 112.414,167.347 113.08,165.034 C113.171,164.719 113.424,164.565 113.733,164.449" id="Fill-27" fill="#42AF71"></path>
            <path d="M109.539,31.103 C111.639,29.318 114.092,29.37 115.454,30.84 C116.285,31.737 116.562,32.668 116.48,33.558 C116.332,35.162 114.996,36.628 113.499,37.497 C113.424,37.54 113.352,37.579 113.28,37.62 C109.475,39.743 108.496,38.107 105.809,42.231 C103.205,46.227 106.453,48.435 106.401,50.634 C101.979,49.122 98.674,48.342 94.043,47.644 C94.043,46.34 96.24,45.146 98.232,44.734 C100.431,44.281 103.042,45.499 104.562,42.692 C105.379,41.184 105.589,39.178 106.211,36.977 C106.545,35.794 106.996,34.557 107.727,33.308 C108.268,32.384 108.887,31.658 109.539,31.103" id="Fill-28" fill="#42AF71"></path>
        </g>
    </g>
</svg>
